<?xml version="1.0" standalone="no"?>
<!DOCTYPE svg PUBLIC "-//W3C//DTD SVG 20010904//EN"
 "http://www.w3.org/TR/2001/REC-SVG-20010904/DTD/svg10.dtd">
<svg version="1.0" xmlns="http://www.w3.org/2000/svg"
 width="777.000000pt" height="745.000000pt" viewBox="0 0 777.000000 745.000000"
 preserveAspectRatio="xMidYMid meet">

<g transform="translate(0.000000,745.000000) scale(0.100000,-0.100000)"
fill="#000000" stroke="none">
<path d="M5555 7186 c-57 -26 -97 -68 -116 -121 l-13 -35 -357 0 c-208 0 -368
-4 -383 -10 l-26 -10 0 -425 c0 -234 -3 -425 -8 -425 -4 0 -39 9 -77 19 -108
30 -305 61 -431 68 l-114 6 0 138 0 137 29 7 c45 10 108 62 130 108 71 147
-33 317 -194 317 -153 0 -255 -151 -201 -298 16 -47 82 -110 128 -124 l38 -11
0 -137 0 -137 -112 -6 c-118 -7 -357 -45 -443 -72 -27 -8 -51 -15 -52 -15 -2
0 -3 92 -3 204 0 173 -2 207 -16 220 -13 14 -57 16 -328 16 l-312 0 -13 36
c-30 83 -120 144 -211 144 -55 0 -140 -47 -174 -97 -51 -74 -46 -184 12 -262
30 -41 113 -81 167 -81 84 0 178 66 206 145 l13 35 293 0 293 0 -2 -191 -3
-191 -100 -38 c-643 -242 -1153 -774 -1375 -1439 l-39 -116 -451 -3 -450 -2 0
348 0 349 39 11 c72 22 141 121 141 202 0 112 -108 220 -220 220 -112 0 -220
-108 -220 -220 0 -81 69 -180 141 -202 l39 -11 0 -364 c0 -232 4 -371 10 -384
10 -18 26 -19 482 -19 l470 0 -6 -32 c-36 -176 -56 -352 -56 -495 l0 -103
-199 0 -199 0 -12 36 c-27 82 -114 143 -203 144 -167 1 -271 -174 -191 -321
47 -85 141 -125 249 -105 48 9 118 74 142 132 l18 44 201 0 201 0 7 -76 c13
-146 54 -337 110 -511 l7 -22 -291 -3 c-245 -3 -292 -5 -300 -18 -6 -9 -10
-148 -10 -325 l0 -311 -36 -13 c-83 -30 -143 -115 -144 -204 0 -124 93 -217
218 -217 77 0 136 31 178 92 77 114 36 263 -90 322 l-56 27 0 284 0 285 285 0
c229 0 285 -3 285 -13 0 -7 31 -76 69 -153 258 -519 688 -919 1221 -1133 l125
-50 3 -531 2 -530 -348 0 -348 0 -13 35 c-19 53 -59 95 -116 121 -59 28 -84
29 -151 9 -84 -25 -154 -116 -154 -201 0 -163 156 -268 302 -205 51 21 114 89
123 132 l7 29 364 0 c233 0 372 4 385 10 18 10 19 27 19 561 0 520 1 550 18
545 130 -41 330 -76 487 -84 l120 -7 3 -262 2 -261 -36 -12 c-47 -16 -100 -64
-126 -113 -31 -61 -23 -161 18 -219 64 -92 192 -120 289 -64 155 92 131 340
-39 396 l-36 12 2 261 3 262 116 7 c130 7 271 29 402 62 l87 22 0 -331 c0
-244 3 -334 12 -343 9 -9 96 -12 329 -12 l317 0 7 -31 c9 -40 67 -105 116
-130 79 -40 188 -19 251 48 129 136 29 367 -159 365 -97 -1 -194 -72 -210
-155 l-6 -27 -291 2 -291 3 -3 316 -2 316 112 43 c296 113 574 295 808 530
195 195 343 405 457 647 l58 123 492 0 493 0 0 -342 0 -343 -45 -19 c-79 -32
-135 -119 -135 -208 0 -53 48 -138 97 -172 127 -88 315 -5 338 149 14 91 -42
193 -126 228 l-49 21 0 364 c0 231 -4 370 -10 383 -10 18 -27 19 -519 19
l-509 0 25 73 c47 139 103 418 103 516 l0 31 203 0 202 0 23 -50 c57 -123 206
-163 320 -86 174 118 88 396 -123 396 -91 0 -177 -61 -205 -144 l-12 -36 -199
0 -199 0 0 88 c0 138 -28 385 -57 500 l-5 22 254 0 c184 0 257 3 266 12 9 9
12 96 12 330 0 301 1 318 18 318 39 0 110 60 138 116 83 169 -72 353 -256 304
-61 -16 -131 -89 -150 -154 -21 -75 -1 -146 59 -205 25 -26 62 -51 81 -57 l35
-10 0 -289 0 -290 -236 -3 -237 -2 -27 87 c-206 667 -713 1213 -1365 1474
l-115 45 -3 407 -2 407 349 0 349 0 7 -29 c10 -45 79 -117 130 -137 106 -40
216 3 268 105 47 93 32 179 -42 252 -33 32 -62 49 -94 57 -65 17 -85 15 -142
-12z m-1343 -1016 c868 -84 1616 -671 1908 -1495 151 -428 165 -920 40 -1358
-255 -886 -1027 -1528 -1945 -1618 -145 -14 -430 -6 -566 15 -544 87 -1038
372 -1389 801 -149 183 -301 448 -375 655 -86 242 -128 492 -128 765 -1 259
29 451 104 683 194 596 598 1060 1165 1338 217 107 508 189 749 213 115 12
324 12 437 1z"/>
<path d="M3880 5494 c-188 -37 -274 -71 -400 -155 -130 -87 -242 -215 -314
-358 -60 -118 -96 -296 -96 -472 l0 -86 -60 -7 c-109 -13 -169 -50 -206 -130
-24 -51 -24 -53 -24 -431 0 -419 6 -485 61 -650 101 -304 318 -556 605 -702
213 -108 416 -149 654 -131 548 42 1016 474 1105 1019 20 128 21 814 1 872
-33 90 -102 140 -213 153 -58 6 -61 8 -67 36 -3 17 -6 77 -6 133 0 242 -88
460 -255 630 -181 185 -382 273 -640 280 -66 2 -131 1 -145 -1z m273 -439
c114 -33 240 -141 294 -251 44 -87 55 -140 57 -266 l1 -113 -505 0 -505 0 -3
90 c-4 115 11 192 54 281 56 114 180 224 289 256 102 30 222 31 318 3z m-32
-1173 c98 -51 145 -140 137 -259 -3 -50 -10 -71 -38 -112 -19 -28 -52 -63 -72
-76 -26 -17 -38 -33 -38 -49 0 -12 16 -85 35 -162 19 -76 35 -144 35 -150 0
-46 -309 -59 -354 -14 -6 6 3 61 27 158 20 82 37 156 37 165 0 10 -12 27 -27
40 -92 76 -123 132 -123 227 0 153 107 260 261 260 54 0 77 -5 120 -28z"/>
</g>
</svg>
